inDegrees=yes
nColumns=22
nRows=29
DataType=double
version=3
OpenSimVersion=4.5
endheader
time	pelvis_tilt	pelvis_list	pelvis_rotation	pelvis_tx	pelvis_ty	pelvis_tz	hip_flexion_r	hip_adduction_r	hip_rotation_r	knee_angle_r	ankle_angle_r	mtp_angle_r	hip_flexion_l	hip_adduction_l	hip_rotation_l	knee_angle_l	ankle_angle_l	mtp_angle_l	lumbar_extension	lumbar_bending	lumbar_rotation
0.8450014382694525	-0.6538498412758325	2.736669950747084	-2.571122088345568	0.8141370504033187	0.8926239221856743	-0.05732186420080403	1.965180011765746	-6.5565386315539	-5.178381213655205	-57.15751475011425	-1.867633304320326	0	18.94924094520711	3.126968948242772	-15.45676460157932	-19.58547993042925	4.651441584763575	0	-7.357833665520932	-6.369776380004996	2.844079337518953
0.8578044903644443	-0.6028527751588445	2.806852079276564	-2.49987539986418	0.8266284298183546	0.8948753038804683	-0.05915235748647723	3.788691471395332	-7.014955422396711	-5.075599358818877	-59.51018400241276	-2.34287960927466	0	17.68347162560028	3.454118187920906	-15.59908536779962	-18.91289017545581	4.996668666820314	0	-7.245106208087161	-6.469398677698446	2.390544583003388
0.8706075424594359	-0.5140293542843776	2.795654945924313	-2.410772528942098	0.8388638410667646	0.8972167355597708	-0.06101683819842474	5.562218878949015	-7.421526162734662	-5.156691245055503	-61.29742262562043	-2.052802623123943	0	16.34684532905883	3.721031155334964	-15.66283485789744	-18.15299113459904	5.321341056248527	0	-7.191808094556818	-6.439376676873027	1.865643063872551
0.8834105945544276	-0.3913169866844201	2.703997766494934	-2.303608634131124	0.8507789962008825	0.8995809037380369	-0.06292196204354532	7.373398997428772	-7.774621157399241	-5.39275571678155	-62.71110835115352	-1.357855331960657	0	14.95239428244983	3.923881546501842	-15.65551861878934	-17.31769605039122	5.644692502419574	0	-7.205596797697041	-6.280163123194243	1.269690493591415
0.8962136466494194	-0.2407706959726255	2.541341194599176	-2.178088336415521	0.8623326241353038	0.9018906270658636	-0.06485598054057116	9.270650103453542	-8.068187059540442	-5.750314951962452	-63.88271292283293	-0.3804911169812527	0	13.5273183503629	4.063018995134892	-15.58632068401297	-16.44150560098056	5.976768709606636	0	-7.288290925626032	-6.005750975982418	0.6128164848366033
0.9090166987444109	-0.07029402819675463	2.325809697021218	-2.034593440708537	0.8735172884450886	0.9040756926658515	-0.06679520121813218	11.2616538569397	-8.301611803668104	-6.198855463270293	-64.85072941787604	0.8053486226181112	0	12.1039726198984	4.145208932314391	-15.4738517766873	-15.56665598189218	6.320604188055662	0	-7.434529911955879	-5.642562842466214	-0.08933153344789412
0.9218197508394027	0.1112219286381708	2.077331770626009	-1.876245711262924	0.8843831349109035	0.9060848180426404	-0.06871401148692916	13.30941534250083	-8.478071775440586	-6.713418762675964	-65.54346666332201	2.110853698129181	0	10.69950074215692	4.182403786922894	-15.34691600504115	-14.71362690671604	6.688812256404731	0	-7.628742091142652	-5.218885458089035	-0.820047125963461
0.9346228029343945	0.2950974469981198	1.821732855559326	-1.708077244283426	0.8949846973097786	0.907873137723522	-0.0705790258493708	15.36650299837958	-8.608690310769695	-7.269083353646125	-65.88027825464886	3.497495932008551	0	9.329567574940414	4.194219802439711	-15.23243634817064	-13.89845086672144	7.08126774833685	0	-7.855399365906023	-4.771136108852732	-1.565944138149092
0.9474258550293861	0.473791781032832	1.578619753426283	-1.535136482034935	0.905375889158101	0.9094042183005345	-0.07235548283898882	17.38574864149424	-8.698947150259459	-7.84443602472438	-65.79605796828208	4.889799625529633	0	8.008167538001709	4.195955333713536	-15.14374382086704	-13.13646162817382	7.490411737314088	0	-8.100500820579718	-4.328963671786306	-2.3145369896177
0.9602289071243778	0.6417776108308095	1.357620822705849	-1.359526757920742	0.9156393876602924	0.9106675394363236	-0.0740066059823648	19.29830142423328	-8.738498080723108	-8.423466028329873	-65.18961306446677	6.229610829369859	0	6.732077125074247	4.196930834356423	-15.08380863270698	-12.41841388844956	7.902207842226925	0	-8.34782090698361	-3.911481130774085	-3.056991679617544
0.9730319592193696	0.7952833899433983	1.164114373672906	-1.18061331817057	0.9258912433977526	0.9116836108751608	-0.07550870535177151	21.00778318185841	-8.717358269837655	-9.004974046232672	-63.9061003204473	7.443676429466235	0	5.480727268039581	4.207014326743837	-15.04470838284801	-11.7075231621721	8.284767423172507	0	-8.577413747524094	-3.53140237030167	-3.786660099705408
0.9858350113143612	0.9329383414660685	0.9975383440494234	-0.9939353777584006	0.936206876134912	0.9124639981288404	-0.07682971190880672	22.45989640154374	-8.616851713515274	-9.585224762092745	-61.9314482092806	8.463234867966982	0	4.246741265638449	4.226101393955404	-15.00274523321349	-10.99759252931208	8.632581877792486	0	-8.7773528158017	-3.196247500744308	-4.501859985553361
0.998638063409353	1.053531713454899	0.859799267287798	-0.7924689012621653	0.9466448858541996	0.9130191244852341	-0.07793903978153405	23.61996821753012	-8.424521574947876	-10.16312520155735	-59.28926757182602	9.198545601228972	0	3.030431934256193	4.253717965027881	-14.93775082174268	-10.29565231812834	8.945781051124243	0	-8.937883106588956	-2.916563182073372	-5.204058492109803
1.011441115504345	1.155224549384534	0.7642680229245828	-0.5727931237218858	0.9572482304031258	0.9133497811470949	-0.07885855706086481	24.47711588830112	-8.171555916977166	-10.74969715478226	-56.02566988395849	9.563976816979629	0	1.831526644519141	4.304598125103603	-14.84285618394672	-9.601236575934967	9.212506636290088	0	-9.050950715490206	-2.705755347957508	-5.890528577115745
1.024244167599336	1.232645556850368	0.7180483249141999	-0.336750102440432	0.9680141047687207	0.9134374261060004	-0.07962153924103481	25.06458668458651	-7.887689959995508	-11.35015778291377	-52.25005249703803	9.461922934288493	0	0.6664546011957756	4.384873190634151	-14.71338390973896	-8.936206929130982	9.435690922544758	0	-9.112405575658551	-2.566219150139181	-6.551213118581053
1.037047219694328	1.280393135595596	0.7320351925526053	-0.08826660910502981	0.9789171826387222	0.9132395830545712	-0.08025299898703653	25.47842600537584	-7.612372302407009	-11.9687999451141	-48.24276644449946	8.813072678534315	0	-0.4444915314718144	4.503552104849548	-14.55779826665385	-8.332291311662862	9.64845981130226	0	-9.120662368573312	-2.505161703312007	-7.180071694498687
1.04985027178932	1.291993798366793	0.7961000458028895	0.1682404517448013	0.9898983879816008	0.9127246801137103	-0.0807789138413872	25.80307414898748	-7.35612039800728	-12.6148931699631	-44.19645745909011	7.719781309033417	0	-1.471669998589342	4.646424591861903	-14.39374374620666	-7.838092090981575	9.918792688629066	0	-9.081363587501714	-2.504418558460481	-7.772053309987315
1.062653323884311	1.263582792912752	0.8971189989022116	0.4291382260187349	1.000935936123547	0.9118779011369484	-0.08121577061723588	26.07326754597071	-7.115900744380086	-13.31430672702805	-40.18147531256965	6.762501418242557	0	-2.408279772737179	4.800830717633709	-14.23811371681812	-7.46103040908273	10.27380664073215	0	-8.998533293206915	-2.544605657174512	-8.323513326302731
1.075456375979303	1.192060368678523	1.026629495725238	0.6907210347638028	1.012034125025901	0.9106963065874354	-0.08156586829936112	26.30123077249661	-6.885927033896522	-14.09563854386408	-36.20158520556417	6.37762684571348	0	-3.252999743194482	4.959442489081947	-14.10347030443723	-7.203213118647508	10.74009936893358	0	-8.872254622069541	-2.615255086984063	-8.830305309578341
1.088259428074295	1.0761180962581	1.172833220628849	0.9514983462921145	1.02320591382766	0.9091992318640006	-0.0818382616962178	26.48925702907822	-6.659861235669207	-14.98683840174751	-32.24310095931558	6.380548894731624	0	-4.011527537853985	5.113049847448307	-13.99737184514326	-7.047887489664501	11.29246494915767	0	-8.702557535554391	-2.702028250490436	-9.289148049818214
1.101062480169287	0.9162966616192285	1.326333169517391	1.212041383509449	1.034468722725272	0.9074203560768298	-0.08204221409151902	26.62338901504663	-6.428135922283697	-15.99435493157652	-28.2678704403761	6.503901859543675	0	-4.686166213798931	5.253230700601081	-13.92103965918461	-6.990791642444899	11.91227018769573	0	-8.490619975490628	-2.793599106472846	-9.697471328632263
1.113865532264278	0.7165648467745593	1.476588148007557	1.475345299093289	1.045847056037967	0.9054000464711671	-0.0821841523839861	26.68312496660391	-6.176155051322423	-17.10761381826707	-24.25727447272189	6.616340632906544	0	-5.281781556787964	5.369078236465077	-13.87028689796338	-7.029745115025319	12.57740476459066	0	-8.240033040618552	-2.877969401218286	-10.05406044350831
1.12666858435927	0.485696119697472	1.618183342480522	1.744815782009114	1.057358780326333	0.9031817049030614	-0.08227395148093565	26.66995200244134	-5.902282259587056	-18.27145988600269	-20.28822644119107	6.674725471385863	0	-5.809668751256629	5.455190748659428	-13.84122227054362	-7.159696737119781	13.26639539358061	0	-7.960190958768018	-2.948018936520933	-10.36160587994937
1.139471636454262	0.2371951983325378	1.751948662375387	2.025551897535824	1.069028166196546	0.9008180501597418	-0.0823237822662963	26.5857558701764	-5.620958073859865	-19.42029968478845	-16.46729059240213	6.70151279025922	0	-6.289022521745035	5.512582499378397	-13.82070205127461	-7.37021994229338	13.94860241500801	0	-7.66406239855321	-3.004205998814147	-10.62407798889229
1.152274688549253	-0.01345314059816644	1.869756945053992	2.319689903245477	1.080829921169553	0.8983557594243643	-0.08234699374355037	26.47148650998866	-5.346644528344974	-20.47484316577557	-12.95705542855973	6.723419547370236	0	-6.739005006942729	5.533480686653594	-13.794946078828	-7.649093719711046	14.59902474437548	0	-7.375042370879841	-3.033947665933837	-10.84990836490365
1.165077740644245	-0.2495296839539525	1.972778191993139	2.620323880908955	1.092702432600077	0.8958378364871374	-0.0823313235065509	26.40607322250712	-5.106739834989193	-21.38205845374041	-9.971112274984558	6.74081703533315	0	-7.189526555641831	5.522456577317588	-13.75421210008675	-7.963552613547454	15.19718199110904	0	-7.124373165397929	-3.036989443731564	-11.05133997830201
1.177880792739237	-0.454980153471008	2.059157305736961	2.918839636857662	1.104592890302082	0.893312372674425	-0.08227341080694209	26.46523709859334	-4.92932231570482	-22.10138561046067	-7.715710599878657	6.785163600783683	0	-7.678481829775037	5.483820404374296	-13.68866652057679	-8.262230445296243	15.70949610369998	0	-6.940611075531039	-3.006540501929872	-11.23809993820953
1.190683844834229	-0.6176896620165313	2.149663482212272	3.205249280191563	1.116454217034476	0.890828904929804	-0.08216875043264071	26.73246949452872	-4.871582550486528	-22.59314308381583	-6.428193516887974	6.791125575369119	0	-8.235635416110316	5.444485458696144	-13.59047324376909	-8.504118329365554	16.09790657670206	0	-6.846604437922108	-2.96229684104609	-11.41801748770303
1.20348689692922	-0.7335152678244782	2.229324392474432	3.475002917806203	1.128264325103081	0.8884174155118191	-0.08203278430606671	27.27463991463216	-4.951094227067699	-22.82049608539153	-6.320422948621768	6.84389938708169	0	-8.860042385528134	5.38875330140141	-13.45575425577079	-8.69936475812581	16.38620602224921	0	-6.848878812907983	-2.879593194818725	-11.5902005239245
